<svg width="150" height="151" viewBox="0 0 150 151" fill="none" xmlns="http://www.w3.org/2000/svg">
<path d="M97.9989 150.5V125.5C111.832 125.5 122.999 114.334 122.999 100.5H147.998C147.998 128.167 125.582 150.5 97.9989 150.5Z" fill="#FFD11A"/>
<path d="M99.9991 150.5V125.5C86.1659 125.5 74.9993 114.334 74.9993 100.5H49.9996C49.9996 128.167 72.416 150.5 99.9991 150.5Z" fill="#FFD11A"/>
<path d="M0 98.498H24.9997C24.9997 112.331 36.1662 123.498 49.9994 123.498V148.497C22.4164 148.497 0 126.164 0 98.498Z" fill="#FFD11A"/>
<path d="M0 100.499H24.9997C24.9997 86.6662 36.1662 75.4997 49.9994 75.4997V50.5C22.4164 50.5 0 72.9164 0 100.499Z" fill="#FFD11A"/>
<path d="M50.9994 0.500488V25.5002C37.1662 25.5002 25.9997 36.6667 25.9997 50.4999H1C1 22.9169 23.4164 0.500488 50.9994 0.500488Z" fill="#FFD11A"/>
<path d="M48.9995 0.500488V25.5002C62.8327 25.5002 73.9992 36.6667 73.9992 50.4999H98.9989C98.9989 22.9169 76.5825 0.500488 48.9995 0.500488Z" fill="#FFD11A"/>
<path d="M149.998 52.4999H124.998C124.998 38.6667 113.832 27.5002 99.9987 27.5002V2.50049C127.582 2.50049 149.998 24.9169 149.998 52.4999Z" fill="#FFD11A"/>
<path d="M149.998 50.4995H124.998C124.998 64.3327 113.832 75.4992 99.9987 75.4992V100.499C127.582 100.499 149.998 78.1659 149.998 50.4995Z" fill="#FFD11A"/>
</svg>
