<?xml version="1.0" standalone="no"?>
<!DOCTYPE svg PUBLIC "-//W3C//DTD SVG 20010904//EN"
 "http://www.w3.org/TR/2001/REC-SVG-20010904/DTD/svg10.dtd">
<svg version="1.0" xmlns="http://www.w3.org/2000/svg"
 width="604.000000pt" height="604.000000pt" viewBox="0 0 604.000000 604.000000"
 preserveAspectRatio="xMidYMid meet">
<metadata>
Created by potrace 1.14, written by Peter Selinger 2001-2017
</metadata>
<g transform="translate(0.000000,604.000000) scale(0.100000,-0.100000)"
fill="#000000" stroke="none">
<path d="M1899 6016 c-2 -2 -38 -7 -78 -10 -41 -4 -77 -9 -80 -11 -4 -2 -22
-6 -42 -9 -203 -32 -527 -155 -676 -257 -23 -16 -46 -29 -52 -29 -6 0 -11 -4
-11 -10 0 -5 -5 -10 -10 -10 -6 0 -16 -4 -23 -10 -7 -5 -52 -41 -101 -79 -299
-236 -535 -564 -651 -906 -15 -44 -29 -87 -32 -95 -3 -8 -7 -22 -9 -30 -1 -8
-12 -49 -22 -91 -11 -42 -23 -101 -26 -131 -4 -31 -9 -66 -12 -79 -3 -13 -7
-72 -10 -131 l-4 -108 500 0 500 0 1 38 c11 414 303 795 704 917 103 31 141
37 250 39 95 3 228 -23 330 -63 55 -21 167 -78 175 -89 3 -4 18 -14 34 -22 44
-22 246 -225 246 -247 0 -3 11 -21 25 -38 77 -101 150 -337 154 -497 l1 -38
501 0 500 0 -6 103 c-8 144 -11 169 -34 285 -19 97 -59 242 -83 300 -6 15 -12
32 -13 38 -2 6 -27 63 -58 126 -98 206 -224 387 -383 552 -92 96 -275 239
-392 308 -123 72 -300 158 -327 158 -8 0 -17 5 -20 10 -3 6 -16 10 -29 10 -12
0 -26 3 -30 7 -3 4 -12 8 -19 9 -7 2 -46 12 -87 24 -41 12 -86 24 -100 26 -14
2 -34 6 -45 9 -11 2 -42 7 -70 11 -27 3 -54 8 -58 11 -10 6 -322 14 -328 9z"/>
<path d="M4020 5441 l0 -501 23 -1 c116 -2 241 -28 352 -72 218 -87 407 -260
514 -474 118 -234 135 -434 61 -688 -23 -75 -104 -230 -154 -293 -22 -27 -152
-158 -178 -179 -73 -59 -193 -124 -294 -159 -77 -26 -94 -31 -159 -39 -22 -4
-49 -8 -60 -10 -11 -2 -39 -4 -62 -4 l-43 -1 0 -501 0 -501 107 6 c243 14 512
78 700 166 24 11 45 20 47 20 2 0 46 23 97 52 379 208 665 507 849 890 49 102
121 291 135 357 52 237 60 301 59 486 0 117 -4 168 -19 258 -3 15 -7 42 -11
60 -10 60 -25 122 -46 192 -12 39 -22 72 -23 75 -1 3 -5 14 -9 25 -39 103 -55
141 -90 210 -22 44 -40 83 -40 87 -1 4 -7 13 -13 19 -7 7 -13 16 -13 21 0 4
-28 49 -62 100 -61 90 -72 105 -111 151 -11 12 -33 39 -50 61 -36 44 -165 170
-217 212 -19 16 -44 37 -55 47 -50 45 -339 227 -361 227 -2 0 -34 14 -71 31
-150 69 -306 113 -547 153 -16 3 -80 8 -143 11 l-113 6 0 -500z"/>
<path d="M1867 4014 c-1 -1 -36 -5 -77 -8 -41 -4 -82 -9 -90 -11 -8 -3 -29 -7
-45 -9 -17 -3 -39 -7 -50 -9 -11 -3 -42 -10 -70 -17 -171 -38 -445 -158 -610
-267 -271 -179 -533 -464 -660 -718 -17 -33 -32 -62 -35 -65 -14 -13 -76 -166
-111 -273 -35 -106 -60 -221 -87 -390 -9 -59 -8 -330 2 -397 77 -530 331 -983
731 -1305 247 -199 547 -342 835 -399 41 -9 89 -18 105 -21 38 -8 104 -14 221
-21 l92 -5 4 31 c3 17 2 33 -1 35 -3 2 -4 38 -1 80 3 42 3 78 0 80 -3 2 -3
110 0 240 3 130 3 238 1 240 -1 2 -2 69 -2 149 2 146 2 146 -21 147 -179 4
-348 54 -500 147 -291 178 -482 514 -473 830 6 189 80 392 198 547 38 50 152
164 191 190 15 11 33 25 40 30 50 44 323 164 339 149 2 -2 16 0 30 5 15 6 64
13 109 17 46 3 84 7 85 8 4 3 6 177 2 180 -2 3 -2 111 1 241 3 130 3 238 2
240 -2 2 -3 78 -2 170 l1 166 -76 -3 c-42 -2 -77 -4 -78 -4z"/>
<path d="M2025 1900 c3 -66 8 -130 11 -142 3 -13 7 -37 9 -54 1 -17 5 -39 8
-50 4 -10 9 -35 12 -54 3 -19 10 -48 15 -65 5 -16 11 -41 14 -55 7 -40 61
-190 90 -255 125 -273 254 -457 455 -649 101 -96 112 -106 117 -106 3 0 15 -9
27 -21 27 -25 177 -128 232 -159 64 -37 235 -120 245 -120 6 0 18 -4 28 -9 36
-20 237 -84 300 -96 9 -1 37 -6 62 -10 25 -5 52 -10 60 -11 147 -27 411 -25
570 5 30 6 66 12 80 15 148 28 423 131 555 209 77 45 235 152 235 159 0 4 4 8
10 8 5 0 20 9 32 19 13 11 34 29 48 41 52 44 159 151 206 206 27 31 54 61 59
68 19 20 115 156 115 161 0 3 18 31 39 63 22 31 38 59 35 63 -2 4 3 12 11 19
8 7 15 21 15 31 0 11 3 19 8 19 8 0 12 9 66 140 35 86 92 269 102 325 2 16 11
64 18 105 8 41 14 82 14 90 0 8 3 63 6 123 l6 107 -500 0 -500 0 -1 -32 c-7
-194 -63 -365 -178 -538 -45 -68 -158 -184 -231 -238 -106 -77 -269 -150 -367
-165 -17 -3 -37 -8 -43 -12 -6 -4 -54 -8 -106 -10 -297 -8 -604 144 -794 394
-74 98 -151 263 -174 375 -21 97 -23 113 -25 189 l-1 37 -501 0 -501 0 7 -120z"/>
</g>
</svg>
